<svg xmlns="http://www.w3.org/2000/svg" width="14.341" height="15.989" viewBox="0 0 14.341 15.989">
    <path id="Icon_simple-automatic"
          d="M8,4.512H8V3.689a.778.778,0,0,0-.66.473L3.913,11.147H5.556l-.5-.64L5.49,9.6l0,0L8,4.516v0ZM7.017,8.749H8.981L8,6.717M5.489,9.611H5.5L5.493,9.6m3.489-.853h0m5.349-5.373L8.84.205a1.864,1.864,0,0,0-1.68,0L1.669,3.377a1.859,1.859,0,0,0-.84,1.455V11.17a1.857,1.857,0,0,0,.84,1.453L7.16,15.795a1.864,1.864,0,0,0,1.68,0l5.49-3.179a1.851,1.851,0,0,0,.84-1.449V4.831a1.861,1.861,0,0,0-.84-1.453Zm-4.044,8.033-.458-.923H6.162l-.449.923H3.525l3.6-7.355A.968.968,0,0,1,8,3.455a.994.994,0,0,1,.877.593l3.6,7.362ZM8,4.513V6.163L9.679,9.611H5.5l.505.627H9.987l.449.9h1.649l-1.139-.66V10.5L8,4.513"
          transform="translate(-0.829 -0.005)" fill="#000000"/>
</svg>
