<svg xmlns="http://www.w3.org/2000/svg" width="14" height="14" viewBox="0 0 14 14">
    <g id="department" transform="translate(0)">
        <path id="Path_3"
              d="M184.249,346h-2.685a.712.712,0,0,0-.712.711v3.828h4.11v-3.828A.712.712,0,0,0,184.249,346Zm0,0"
              transform="translate(-175.907 -336.539)"/>
        <path id="Path_4"
              d="M363.805,392h-1.873a.716.716,0,0,0-.719.711c0,2.28,0,2.143,0,2.176v.395h3.313v-2.57A.716.716,0,0,0,363.805,392Zm0,0"
              transform="translate(-351.335 -381.281)"/>
        <path id="Path_5"
              d="M14,3.309V1.5A1.506,1.506,0,0,0,12.5,0H1.5A1.506,1.506,0,0,0,0,1.5v1.8ZM11.921,1.668a.41.41,0,1,1-.41.41A.41.41,0,0,1,11.921,1.668Zm-1.64,0a.41.41,0,1,1-.41.41A.41.41,0,0,1,10.28,1.668Zm-1.64,0a.41.41,0,1,1-.41.41A.41.41,0,0,1,8.64,1.668Zm0,0"
              transform="translate(0)"/>
        <path id="Path_6" d="M76.052,302a.41.41,0,1,0,.411.41A.411.411,0,0,0,76.052,302Zm0,0"
              transform="translate(-73.573 -293.742)"/>
        <path id="Path_7" d="M32.15,392H30.275a.716.716,0,0,0-.72.711v2.57H32.87v-2.57a.716.716,0,0,0-.72-.711Zm0,0"
              transform="translate(-28.747 -381.281)"/>
        <path id="Path_8" d="M407.712,302a.41.41,0,1,0,.411.41A.411.411,0,0,0,407.712,302Zm0,0"
              transform="translate(-396.164 -293.742)"/>
        <path id="Path_9"
              d="M0,151v7.1a1.54,1.54,0,0,1,1.528-1.33h.951a1.23,1.23,0,1,1,1.233-1.23,1.233,1.233,0,0,1-1.233,1.23c.963,0,1.226-.044,1.647.179a1.535,1.535,0,0,1,1.531-1.437H7.014a1.436,1.436,0,1,1,1.438-1.436,1.439,1.439,0,0,1-1.438,1.436H8.343a1.535,1.535,0,0,1,1.531,1.438c.416-.221.663-.18,1.674-.18a1.23,1.23,0,1,1,1.233-1.23,1.233,1.233,0,0,1-1.233,1.23h.923A1.539,1.539,0,0,1,14,158.115V151Zm0,0"
              transform="translate(0 -146.871)"/>
        <path id="Path_10" d="M234.573,241a.615.615,0,1,0,.617.615A.617.617,0,0,0,234.573,241Zm0,0"
              transform="translate(-227.56 -234.41)"/>
    </g>
</svg>
