<svg xmlns="http://www.w3.org/2000/svg" width="16" height="16.473" viewBox="0 0 16 16.473">
    <g id="email" transform="translate(-4 -2.344)">
        <path id="Path_269" d="M56,30.121v1.417l.95-.623Z" transform="translate(-37.143 -19.841)"
              fill="#000000"/>
        <path id="Path_270" d="M5.625,30.121l-.95.795.95.623Z"
              transform="translate(-0.482 -19.841)"
              fill="#000000"/>
        <path id="Path_271"
              d="M12.157,39.99a.3.3,0,0,1-.314,0L4,34.85v6.329a.86.86,0,0,0,.857.857H19.143A.86.86,0,0,0,20,41.179V34.85Zm-7.871-.24h.571v.571H4.286Zm1.143,2H5.143a.86.86,0,0,1-.857-.857v-.286h.571v.286a.286.286,0,0,0,.286.286h.286Zm.857,0H5.714v-.571h.571Z"
              transform="translate(0 -23.219)" fill="#000000"/>
        <path id="Path_272" d="M14.571,23.329a.858.858,0,0,0,.857,1.486l.743-.429L15.314,22.9Z"
              transform="translate(-7.244 -14.683)" fill="#000000"/>
        <path id="Path_273" d="M20.761,12.384l5.482-.79L23.237,6.387,19.812,10.74Z"
              transform="translate(-11.294 -2.888)" fill="#000000"/>
        <path id="Path_274"
              d="M36.655,10.114a.852.852,0,0,0-.086-.651L34.283,5.5a.846.846,0,0,0-.9-.411l3.09,5.353A.849.849,0,0,0,36.655,10.114Z"
              transform="translate(-20.99 -1.952)" fill="#000000"/>
        <path id="Path_275"
              d="M22.571,17.54V12.286H20.123l.237.409a1.42,1.42,0,0,1,.143,1.083,1.435,1.435,0,0,1-.666.869.312.312,0,0,1-.1.034l-3.643.526.531.794a1.439,1.439,0,0,0,.394.394l1.717,1.3A.855.855,0,0,1,18.849,19l-.311.314a.866.866,0,0,1-1.214,0l-3.649-3.751-.92.529a1.429,1.429,0,0,1-.711.191,1.507,1.507,0,0,1-.371-.049,1.429,1.429,0,0,1-.346-2.617l.943-.543L14.689,10h-4.4a.286.286,0,0,0-.286.286V17.54l6.286,4.117Z"
              transform="translate(-4.286 -5.469)" fill="#000000"/>
        <path id="Path_276"
              d="M29.038,32.15l.314-.314a.277.277,0,0,0,.083-.229.286.286,0,0,0-.126-.21l-1.718-1.3a1.964,1.964,0,0,1-.537-.543l-.683-1.022-1.1.159,3.367,3.461a.286.286,0,0,0,.4,0Z"
              transform="translate(-15.192 -18.705)" fill="#000000"/>
        <path id="Path_277" d="M0,0H1.714V.571H0Z"
              transform="matrix(0.866, -0.5, 0.5, 0.866, 15.282, 4.712)" fill="#000000"/>
        <path id="Path_278" d="M0,0H1.714V.571H0Z"
              transform="matrix(0.5, -0.866, 0.866, 0.5, 14.608, 3.828)" fill="#000000"/>
        <path id="Path_279" d="M45.99,13.964H47.7v.571H45.99Z" transform="translate(-29.993 -8.3)"
              fill="#000000"/>
    </g>
</svg>
