<?xml version="1.0" encoding="iso-8859-1"?>
<!-- Generator: Adobe Illustrator 19.0.0, SVG Export Plug-In . SVG Version: 6.00 Build 0)  -->
<svg version="1.1" id="Capa_1" xmlns="http://www.w3.org/2000/svg" x="0px" y="0px"
     viewBox="0 0 512 512" style="enable-background:new 0 0 512 512;" xml:space="preserve">
<g>
	<g>
		<g>
			<path d="M464,63.994H48c-26.51,0-48,21.49-48,48v288c0,26.51,21.49,48,48,48h208v-32H48c-8.837,0-16-7.163-16-16v-284.32
				l214.72,153.28c5.555,3.955,13.005,3.955,18.56,0L480,115.674v156.32h32v-160C512,85.484,490.51,63.994,464,63.994z M256,236.314
				L59.52,95.994h392.96L256,236.314z"/>
            <path d="M352,409.434l-36.64-36.64l-22.56,22.56l48,48c6.241,6.204,16.319,6.204,22.56,0l112-112l-22.56-22.56L352,409.434z"/>
		</g>
	</g>
</g>
    <g>
</g>
    <g>
</g>
    <g>
</g>
    <g>
</g>
    <g>
</g>
    <g>
</g>
    <g>
</g>
    <g>
</g>
    <g>
</g>
    <g>
</g>
    <g>
</g>
    <g>
</g>
    <g>
</g>
    <g>
</g>
    <g>
</g>
</svg>
