<svg xmlns="http://www.w3.org/2000/svg" width="14" height="11" viewBox="0 0 14 11">
    <g id="Group_3" transform="translate(-663 -690)">
        <g id="email" transform="translate(663 690)">
            <g id="Group_2" transform="translate(0 0)">
                <g id="Group_1">
                    <path id="Path_1"
                          d="M12.688,63.994H1.313A1.345,1.345,0,0,0,0,65.369v8.25a1.345,1.345,0,0,0,1.313,1.375H7v-.917H1.313a.448.448,0,0,1-.438-.458V65.474l5.871,4.391a.421.421,0,0,0,.507,0l5.871-4.391v4.478H14V65.369A1.345,1.345,0,0,0,12.688,63.994ZM7,68.93,1.628,64.911H12.373Z"
                          transform="translate(0 -63.994)"/>
                    <path id="Path_2"
                          d="M294.419,311.677l-1-1.05-.617.646,1.313,1.375a.423.423,0,0,0,.617,0l3.063-3.208-.617-.646Z"
                          transform="translate(-284.794 -301.782)"/>
                </g>
            </g>
        </g>
    </g>
</svg>
