<svg xmlns="http://www.w3.org/2000/svg" width="13.333" height="13.333" viewBox="0 0 13.333 13.333">
    <path id="Icon_material-help"
          d="M8,1.333A6.667,6.667,0,1,0,14.667,8,6.669,6.669,0,0,0,8,1.333Zm.667,11.333H7.333V11.333H8.667ZM10.047,7.5l-.6.613A2.27,2.27,0,0,0,8.667,10H7.333V9.667a2.683,2.683,0,0,1,.78-1.887l.827-.84A1.3,1.3,0,0,0,9.333,6,1.333,1.333,0,1,0,6.667,6H5.333a2.667,2.667,0,1,1,5.333,0,2.121,2.121,0,0,1-.62,1.5Z"
          transform="translate(-1.333 -1.333)" fill="#000000"/>
</svg>
