<svg xmlns="http://www.w3.org/2000/svg" width="13" height="13" viewBox="0 0 13 13">
    <path id="Icon_awesome-history"
          d="M13.25,6.738A6.5,6.5,0,0,1,2.671,11.811a.629.629,0,0,1-.048-.933l.3-.3a.63.63,0,0,1,.836-.052,4.823,4.823,0,1,0-.308-7.294l1.33,1.33a.419.419,0,0,1-.3.716H.669A.419.419,0,0,1,.25,4.863V1.053a.419.419,0,0,1,.716-.3L2.26,2.05A6.5,6.5,0,0,1,13.25,6.738ZM8.508,8.8l.257-.331a.629.629,0,0,0-.11-.883l-1.067-.83V4.024A.629.629,0,0,0,6.96,3.4H6.54a.629.629,0,0,0-.629.629V7.58L7.626,8.913A.629.629,0,0,0,8.508,8.8Z"
          transform="translate(-0.25 -0.25)" fill="#a7a7a7"/>
</svg>
