<svg xmlns="http://www.w3.org/2000/svg"
     fill="#5D5D5D"
     width="12"
     height="12.003"
     viewBox="0 0 12 12.003">
    <path id="Icon_ionic-ios-settings"
          d="M13.009,8A1.544,1.544,0,0,1,14,6.559a6.121,6.121,0,0,0-.741-1.784,1.565,1.565,0,0,1-.628.134,1.541,1.541,0,0,1-1.409-2.169A6.1,6.1,0,0,0,9.441,2,1.543,1.543,0,0,1,6.559,2a6.121,6.121,0,0,0-1.784.741A1.541,1.541,0,0,1,3.366,4.909a1.514,1.514,0,0,1-.628-.134A6.256,6.256,0,0,0,2,6.563,1.544,1.544,0,0,1,2,9.444a6.121,6.121,0,0,0,.741,1.784,1.541,1.541,0,0,1,2.034,2.034A6.156,6.156,0,0,0,6.563,14a1.54,1.54,0,0,1,2.875,0,6.121,6.121,0,0,0,1.784-.741,1.543,1.543,0,0,1,2.034-2.034A6.156,6.156,0,0,0,14,9.444,1.552,1.552,0,0,1,13.009,8ZM8.028,10.5a2.5,2.5,0,1,1,2.5-2.5A2.5,2.5,0,0,1,8.028,10.5Z"
          transform="translate(-2 -2)" fill="#5D5D5D"/>
</svg>
