<svg xmlns="http://www.w3.org/2000/svg" width="1366" height="768" viewBox="0 0 1366 768">
    <defs>
        <clipPath id="clip-sign_up">
            <rect width="1366" height="768"/>
        </clipPath>
    </defs>
    <g id="sign_up" clip-path="url(#clip-sign_up)">
        <rect width="1366" height="768" fill="#fff"/>
        <g id="memphis" transform="translate(-0.313 -68)">
            <g id="Group_1">
                <path id="Path_1"
                      d="M177.253,825.568,156.6,806.639l2.027-2.211L177.253,821.5l19.642-18,19.642,18,19.643-18,19.645,18,18.632-17.072,2.027,2.213-20.659,18.928-19.645-18-19.643,18-19.642-18Z"
                      fill="#e8d6fc"/>
            </g>
            <g id="Group_2">
                <path id="Path_2"
                      d="M81.17,450.249l-7.436-27.012,2.892-.8L83.333,446.8l26.2-4.808,7.071,25.687,26.205-4.807,7.073,25.688L174.743,484l.541,2.952-27.56,5.053-7.073-25.688-26.205,4.807-7.071-25.687Z"
                      fill="#e8d6fc"/>
            </g>
            <g id="Group_3">
                <path id="Path_3"
                      d="M661.84,1189.6l-7.436-27.012,2.892-.8L664,1186.151l26.2-4.807,7.071,25.687,26.205-4.807,7.073,25.688,24.856-4.558.541,2.952-27.56,5.052-7.073-25.688-26.205,4.807-7.071-25.687Z"
                      fill="#e8d6fc"/>
            </g>
            <g id="Group_4">
                <path id="Path_4"
                      d="M587.858,134.369l-7.436-27.012,2.892-.8,6.706,24.361,26.2-4.808L623.3,151.8l26.205-4.807,7.073,25.688,24.856-4.558.541,2.952-27.56,5.053-7.073-25.688-26.205,4.807-7.071-25.687Z"
                      fill="#e8d6fc"/>
            </g>
            <g id="Group_5">
                <path id="Path_5"
                      d="M361.8,1116.28l-27.778,3.651-.39-2.974,25.052-3.292-1.159-26.617,26.415-3.471-1.158-26.617,26.417-3.474-1.1-25.247,3-.13,1.215,27.993-26.417,3.474,1.158,26.618-26.415,3.471Z"
                      fill="#e8d6fc"/>
            </g>
            <g id="Group_6">
                <path id="Path_6"
                      d="M725.783,806.22,698,809.87l-.39-2.974,25.052-3.292-1.159-26.617,26.415-3.471L746.765,746.9l26.417-3.474-1.1-25.247,3-.13L776.3,746.04l-26.417,3.474,1.158,26.617L724.624,779.6Z"
                      fill="#e8d6fc"/>
            </g>
            <g id="Group_7">
                <path id="Path_7"
                      d="M496.8,1499.214l-27.778,3.651-.39-2.974,25.052-3.292-1.159-26.617,26.415-3.471-1.158-26.618,26.417-3.474-1.1-25.247,3-.13,1.215,27.993-26.417,3.474,1.158,26.617-26.415,3.471Z"
                      fill="#e8d6fc"/>
            </g>
            <g id="Group_8">
                <path id="Path_8"
                      d="M85.479,1193.642l-3.619,27.782-2.974-.388,3.264-25.055-26.019-5.728,3.441-26.419L33.552,1158.1l3.44-26.421-24.679-5.435.646-2.931,27.363,6.028-3.44,26.421L62.9,1161.5l-3.441,26.419Z"
                      fill="#e8d6fc"/>
            </g>
            <g id="Group_9">
                <path id="Path_9"
                      d="M892.162,412.881l-26.5-9.09.974-2.837,23.9,8.2L901.341,384.8l25.2,8.644,10.806-24.353,25.2,8.643,10.251-23.1,2.743,1.218-11.367,25.61-25.2-8.643-10.806,24.353-25.2-8.644Z"
                      fill="#e8d6fc"/>
            </g>
            <g id="Group_10">
                <path id="Path_10"
                      d="M1266.458,207.416l-26.5-9.09.974-2.837,23.9,8.2,10.805-24.352,25.2,8.644,10.806-24.353,25.2,8.643,10.251-23.1,2.743,1.218L1338.473,176l-25.2-8.643-10.806,24.353-25.2-8.644Z"
                      fill="#e8d6fc"/>
            </g>
            <g id="Group_11">
                <path id="Path_11"
                      d="M1350.332,649.918l3.294,27.822-2.979.352L1347.677,653l-26.629.817-3.132-26.457-26.63.816-3.134-26.459-25.259.773-.092-3,28.006-.856,3.134,26.459,26.63-.816,3.132,26.457Z"
                      fill="#e8d6fc"/>
            </g>
            <g id="Group_12">
                <path id="Path_12"
                      d="M185.132,124.539l3.294,27.822-2.979.352-2.97-25.092-26.629.817-3.132-26.457-26.63.816L122.95,76.338l-25.259.773-.092-3,28.006-.856,3.134,26.459,26.63-.816,3.132,26.457Z"
                      fill="#e8d6fc"/>
            </g>
            <g id="Group_13">
                <path id="Path_13"
                      d="M917.583,912.035l-27.209,6.678-.714-2.914,24.539-6.022-4.074-26.329L936,877.1l-4.073-26.329,25.876-6.353-3.862-24.974,2.966-.458,4.281,27.69-25.876,6.353,4.073,26.329-25.874,6.35Z"
                      fill="#e8d6fc"/>
            </g>
            <g id="Group_14">
                <path id="Path_14"
                      d="M1144.082,1320.837l-7.378,27.028-2.894-.791,6.654-24.375-24.993-9.227,7.016-25.7-24.994-9.228,7.015-25.7-23.706-8.754,1.04-2.815,26.284,9.707-7.015,25.7,24.994,9.228-7.016,25.7Z"
                      fill="#e8d6fc"/>
            </g>
            <g id="Group_15">
                <path id="Path_15"
                      d="M495.485,555.762l-27.209,6.678-.714-2.914L492.1,553.5l-4.074-26.329,25.874-6.35L509.828,494.5l25.876-6.353-3.862-24.974,2.966-.458,4.281,27.69-25.876,6.353,4.073,26.329-25.874,6.35Z"
                      fill="#e8d6fc"/>
            </g>
            <path id="Path_16"
                  d="M422.336,750.178l-22.914,22.913v36.2l34.634,11.544,22.914-22.914v-36.2Zm.81,3.431,29.548,9.849-19.448,19.448-29.548-9.85Zm-20.724,22.184,29.729,9.91v31.331l-29.729-9.909Zm32.729,39.7V785.243l18.819-18.819v30.251Z"
                  fill="#e8d6fc"/>
            <path id="Path_17"
                  d="M1170.186,891.068l-22.914,22.913v36.2l34.634,11.544,22.914-22.914v-36.2Zm.81,3.431,29.548,9.849L1181.1,923.8l-29.548-9.85Zm-20.724,22.184,29.729,9.91v31.331l-29.729-9.909Zm32.729,39.7V926.133l18.819-18.819v30.251Z"
                  fill="#e8d6fc"/>
            <path id="Path_18"
                  d="M1182.113,1460.751l-32.143,4.1-22.145,28.632,20.334,30.321,32.144-4.107,22.145-28.631Zm-1.458,3.21L1198,1489.829l-27.282,3.485-17.346-25.868Zm-29.965,4.868,17.453,26.028-19.168,24.783-17.454-26.027Zm1.6,51.428,18.508-23.929,26.4-3.372-18.508,23.929Z"
                  fill="#e8d6fc"/>
            <path id="Path_19"
                  d="M1137.069,292.17l-6.289,31.788,20.142,30.075,35.2-9.681,6.288-31.79-20.141-30.074Zm2.583,2.4,30.031-8.259-5.337,26.981-30.032,8.258Zm-4.876,29.964,30.216-8.309,17.435,26.033-30.216,8.309Zm49.287,14.774-16.834-25.135,5.165-26.108,16.833,25.135Z"
                  fill="#e8d6fc"/>
            <path id="Path_20"
                  d="M1005.093,626.149l-7.749,31.464,18.731,30.973,35.61-8.046,7.75-31.465L1040.7,618.1Zm2.47,2.517,30.38-6.864-6.577,26.706-30.381,6.862Zm-6.254,29.707,30.567-6.9,16.214,26.81-30.567,6.9Zm48.551,17.034-15.654-25.885,6.364-25.843,15.655,25.886Z"
                  fill="#e8d6fc"/>
            <path id="Path_21"
                  d="M24.25,742.127l-3.821,32.179,22.4,28.433,34.35-12.365L81,758.194,58.6,729.762Zm2.76,2.194,29.3-10.548-3.242,27.312L23.767,771.633Zm-2.552,30.251,29.486-10.613,19.389,24.612L43.848,799.184ZM74.736,785.5l-18.72-23.763,3.137-26.429,18.72,23.763Z"
                  fill="#e8d6fc"/>
            <path id="Path_22"
                  d="M185.019,1210.752l27.749,16.736,35.135-8.7,2.882-36.394-27.749-16.736-35.135,8.7Zm3.136-1.611,2.46-31.049,23.552,14.2-2.461,31.049Zm26.515,14.786,2.474-31.24,30.414-7.53-2.475,31.24Zm30.672-41.312-29.365,7.27-22.79-13.745,29.364-7.27Z"
                  fill="#e8d6fc"/>
            <path id="Path_23"
                  d="M882.939,1261.538l14.271,29.093,34.251,11.707,22.125-29.04L939.314,1244.2l-34.25-11.706Zm3.51.343,18.876-24.774,12.113,24.692-18.877,24.774Zm14.289,26.785,18.992-24.926,29.648,10.133L930.386,1298.8Zm48.152-18.13-28.625-9.784-11.721-23.894,28.625,9.783Z"
                  fill="#e8d6fc"/>
            <path id="Path_24"
                  d="M681.848,383.413l-31.554,7.375-19.1,30.748,23.332,28.08,31.555-7.376,19.1-30.748Zm-1.122,3.342,19.9,23.956-26.782,6.26-19.9-23.956Zm-29.31,7.911,20.027,24.1-16.531,26.616-20.026-24.1Zm6.857,50.994,15.961-25.7L700.15,413.9l-15.961,25.7Z"
                  fill="#e8d6fc"/>
            <path id="Path_25"
                  d="M802.871,28.773l-31.554,7.375L752.22,66.9l23.331,28.08L807.106,87.6l19.1-30.747Zm-1.122,3.342,19.9,23.956-26.781,6.261-19.9-23.957ZM772.44,40.026l20.026,24.1-16.53,26.616-20.027-24.1ZM779.3,91.02l15.96-25.7,25.916-6.058-15.96,25.7Z"
                  fill="#e8d6fc"/>
            <path id="Path_26"
                  d="M376.723,108.244l-31.554,7.375-19.1,30.748,23.332,28.08,31.555-7.376,19.1-30.747Zm-1.122,3.343,19.9,23.955L368.723,141.8l-19.9-23.957Zm-29.31,7.91,20.027,24.1-16.531,26.616-20.026-24.1Zm6.857,50.994,15.961-25.7,25.916-6.058-15.961,25.7Z"
                  fill="#e8d6fc"/>
            <path id="Path_27" d="M873.552,547.945H853.959V528.352h-3v19.593H831.366v3h19.593v19.593h3V550.945h19.593Z"
                  fill="#e8d6fc"/>
            <path id="Path_28" d="M499.156,27.273H479.563V7.68h-3V27.273H456.97v3h19.593V49.865h3V30.273h19.593Z"
                  fill="#e8d6fc"/>
            <path id="Path_29" d="M1350.4,400.363h-19.593V380.771h-3v19.593h-19.593v3h19.593v19.593h3V403.363H1350.4Z"
                  fill="#e8d6fc"/>
            <path id="Path_30" d="M275.066,956.286H255.474V936.693h-3v19.593H232.881v3h19.593v19.593h3V959.286h19.593Z"
                  fill="#e8d6fc"/>
            <path id="Path_31"
                  d="M1274.442,1125.677l-11.92,15.549-15.549-11.92-1.825,2.381,15.549,11.92-11.92,15.55,2.381,1.825,11.92-15.55,15.549,11.92,1.825-2.381-15.55-11.92,11.92-15.549Z"
                  fill="#e8d6fc"/>
            <path id="Path_32"
                  d="M859.293,1421.648l-11.92,15.55-15.549-11.92L830,1427.658l15.549,11.92-11.92,15.55,2.381,1.825,11.92-15.549,15.549,11.92,1.825-2.381-15.549-11.92,11.92-15.55Z"
                  fill="#e8d6fc"/>
            <path id="Path_33" d="M360.362,1328.578H340.77v-19.593h-3v19.593H318.177v3H337.77v19.593h3v-19.593h19.593Z"
                  fill="#e8d6fc"/>
            <path id="Path_34"
                  d="M787.612,1013.206l-16.578,10.442-10.442-16.578-2.538,1.6,10.442,16.578-16.578,10.442,1.6,2.538,16.578-10.442,10.442,16.578,2.538-1.6-10.442-16.578,16.578-10.442Z"
                  fill="#e8d6fc"/>
            <path id="Path_35"
                  d="M293.562,315.285,277.028,325.8l-10.512-16.534-2.532,1.61L274.5,327.406l-16.534,10.512,1.61,2.532,16.534-10.512,10.512,16.534,2.532-1.61-10.512-16.534,16.534-10.512Z"
                  fill="#e8d6fc"/>
            <path id="Path_36"
                  d="M1027.517,119.007l-16.534,10.512-10.512-16.534-2.532,1.61,10.512,16.534L991.917,141.64l1.61,2.532,16.534-10.512,10.512,16.534,2.532-1.61-10.512-16.534,16.534-10.512Z"
                  fill="#e8d6fc"/>
            <path id="Path_37" d="M571.3,993.267l20.5-32.905,20.5,32.905Z" fill="#e8d6fc"/>
            <path id="Path_38" d="M626.892,656.268l36.125-14.074-3.286,38.631Z" fill="#e8d6fc"/>
            <path id="Path_39" d="M813.3,277.247l36.125-14.074L846.143,301.8Z" fill="#e8d6fc"/>
            <path id="Path_40" d="M60.371,1004.09,97.6,993.267l-6.69,38.189Z" fill="#e8d6fc"/>
            <path id="Path_41" d="M221.592,602.007l37.229-10.824-6.69,38.188Z" fill="#e8d6fc"/>
            <path id="Path_42" d="M78.986,1414.819,116.214,1404l-6.69,38.188Z" fill="#e8d6fc"/>
            <path id="Path_43" d="M552.685,1245.426l37.229-10.824-6.69,38.188Z" fill="#e8d6fc"/>
            <path id="Path_44" d="M1142.982,531.928l-2.248-38.7,35.734,15.039Z" fill="#e8d6fc"/>
            <path id="Path_45" d="M1166.808,81.227l-2.248-38.7,35.734,15.039Z" fill="#e8d6fc"/>
            <path id="Path_46" d="M1012.77,1093.372l-2.248-38.7,35.734,15.039Z" fill="#e8d6fc"/>
            <path id="Path_47" d="M51.325,217l-2.248-38.7,35.735,15.039Z" fill="#e8d6fc"/>
            <path id="Path_48" d="M1275.343,1370.834l29.441-25.226,9.67,37.545Z" fill="#e8d6fc"/>
            <path id="Path_49" d="M1239.868,794.485l34.687-17.318.259,38.769Z" fill="#e8d6fc"/>
            <path id="Path_50" d="M507.8,317.249l38.549-4.137-13.274,36.427Z" fill="#e8d6fc"/>
        </g>
    </g>
</svg>
