<svg xmlns="http://www.w3.org/2000/svg" width="14.71" height="14.71" viewBox="0 0 14.71 14.71">
    <path id="Icon_metro-insert-template"
          d="M6.284,3.428H8v.857H6.284Zm2.571,0h1.714v.857H8.855Zm4.285,0V6.855H10.568V6h1.714V4.285h-.857V3.428ZM5.427,6H7.141v.857H5.427ZM8,6H9.712v.857H8ZM3.713,4.285V6H4.57v.857H2.856V3.428H5.427v.857ZM6.284,8.569H8v.857H6.284Zm2.571,0h1.714v.857H8.855Zm4.285,0V12H10.568V11.14h1.714V9.426h-.857V8.569ZM5.427,11.14H7.141V12H5.427ZM8,11.14H9.712V12H8ZM3.713,9.426V11.14H4.57V12H2.856V8.569H5.427v.857ZM14,1.714H2v12H14Zm.857-.857v13.71H1.143V.857Z"
          transform="translate(-0.643 -0.357)" fill="#000000" stroke="#000000" stroke-width="1"/>
</svg>
