<svg xmlns="http://www.w3.org/2000/svg" width="13.714" height="12.19" viewBox="0 0 13.714 12.19">
    <path id="Icon_metro-users"
          d="M10.286,11.46v-.628A3.4,3.4,0,0,0,11.81,8c0-1.894,0-3.429-2.286-3.429S7.238,6.106,7.238,8a3.4,3.4,0,0,0,1.524,2.831v.628c-2.585.211-4.571,1.481-4.571,3.017H14.857c0-1.535-1.987-2.805-4.571-3.017Zm-5.248.294A7.239,7.239,0,0,1,7.416,10.8a4.3,4.3,0,0,1-.482-.7A4.363,4.363,0,0,1,6.381,8a6.765,6.765,0,0,1,.364-2.783,2.481,2.481,0,0,1,1.9-1.422c-.2-.91-.737-1.509-2.165-1.509C4.19,2.286,4.19,3.821,4.19,5.714A3.4,3.4,0,0,0,5.714,8.546v.628c-2.585.211-4.571,1.481-4.571,3.017H4.464a4.88,4.88,0,0,1,.574-.437Z"
          transform="translate(-1.143 -2.286)" fill="#000000"/>
</svg>
