<svg id="envelope" xmlns="http://www.w3.org/2000/svg" width="17" height="14" viewBox="0 0 17 14">
    <g id="Group_232">
        <path id="Path_282"
              d="M14.925,57.75H2.079A2.171,2.171,0,0,0,0,60v9.5a2.171,2.171,0,0,0,2.079,2.25H14.921A2.171,2.171,0,0,0,17,69.5V60A2.17,2.17,0,0,0,14.925,57.75ZM16.054,69.5a1.18,1.18,0,0,1-1.129,1.222H2.079A1.18,1.18,0,0,1,.95,69.5V60a1.18,1.18,0,0,1,1.129-1.222H14.921A1.18,1.18,0,0,1,16.05,60v9.5Z"
              transform="translate(0 -57.75)" fill="#bebebe"/>
        <path id="Path_283"
              d="M65.153,114.41l4.462-4.5a.628.628,0,0,0,.038-.811.473.473,0,0,0-.721-.042l-6.153,6.215-1.2-1.206a.023.023,0,0,1-.008-.013.789.789,0,0,0-.083-.081L56.6,109.049a.47.47,0,0,0-.721.047.624.624,0,0,0,.042.811l4.515,4.541-4.5,4.736a.628.628,0,0,0-.023.811.5.5,0,0,0,.374.183.481.481,0,0,0,.347-.153l4.564-4.8,1.238,1.245a.467.467,0,0,0,.679,0l1.272-1.283,4.537,4.851a.477.477,0,0,0,.351.157.484.484,0,0,0,.37-.178.628.628,0,0,0-.019-.811Z"
              transform="translate(-54.27 -107.543)" fill="#bebebe"/>
    </g>
</svg>
