<svg xmlns="http://www.w3.org/2000/svg" width="17" height="17" viewBox="0 0 17 17">
    <g id="phone-call" transform="translate(-0.344 0)">
        <g id="Group_248" transform="translate(0.344 0)">
            <path id="Path_302"
                  d="M13.951,37.064a1.7,1.7,0,0,0-1.229-.563,1.754,1.754,0,0,0-1.244.559L10.329,38.2c-.095-.051-.189-.1-.28-.145-.131-.065-.255-.127-.36-.192A12.482,12.482,0,0,1,6.7,35.144,7.352,7.352,0,0,1,5.713,33.6c.3-.272.575-.555.844-.827.1-.1.2-.207.306-.309a1.663,1.663,0,0,0,0-2.512l-.993-.991c-.113-.113-.229-.229-.338-.345-.218-.225-.447-.457-.684-.675a1.723,1.723,0,0,0-1.218-.534,1.783,1.783,0,0,0-1.237.534l-.007.007L1.149,29.192a2.653,2.653,0,0,0-.789,1.688,6.35,6.35,0,0,0,.466,2.693A15.62,15.62,0,0,0,3.607,38.2a17.111,17.111,0,0,0,5.7,4.453,8.894,8.894,0,0,0,3.2.944c.076,0,.156.007.229.007a2.743,2.743,0,0,0,2.1-.9c0-.007.011-.011.015-.018a8.259,8.259,0,0,1,.636-.657c.156-.149.316-.3.473-.468a1.809,1.809,0,0,0,.549-1.256,1.743,1.743,0,0,0-.56-1.245Zm1.3,3.822s0,0,0,0c-.142.152-.287.29-.444.443a9.552,9.552,0,0,0-.7.726,1.755,1.755,0,0,1-1.368.577c-.055,0-.113,0-.167,0a7.9,7.9,0,0,1-2.837-.849,16.151,16.151,0,0,1-5.368-4.2,14.728,14.728,0,0,1-2.619-4.352,5.172,5.172,0,0,1-.407-2.272,1.665,1.665,0,0,1,.5-1.078l1.24-1.238a.828.828,0,0,1,.553-.258.779.779,0,0,1,.531.254l.011.011c.222.207.433.421.655.65.113.116.229.232.346.352l.993.991a.692.692,0,0,1,0,1.125c-.105.105-.207.211-.313.312-.306.312-.6.6-.913.886-.007.007-.015.011-.018.018a.739.739,0,0,0-.189.824l.011.033a7.952,7.952,0,0,0,1.175,1.913l0,0a13.339,13.339,0,0,0,3.23,2.933,4.968,4.968,0,0,0,.447.243c.131.065.255.127.36.192.015.007.029.018.044.025a.79.79,0,0,0,.36.091.778.778,0,0,0,.553-.25l1.244-1.241a.823.823,0,0,1,.549-.272.741.741,0,0,1,.524.265l.007.007,2,2A.717.717,0,0,1,15.253,40.885Z"
                  transform="translate(-0.344 -26.607)" fill="#bebebe"/>
            <path id="Path_303"
                  d="M245.268,86.706a3.75,3.75,0,0,1,3.054,3.054.391.391,0,0,0,.388.326.52.52,0,0,0,.067-.006.394.394,0,0,0,.323-.455,4.534,4.534,0,0,0-3.695-3.695.4.4,0,0,0-.455.321A.389.389,0,0,0,245.268,86.706Z"
                  transform="translate(-235.436 -82.592)" fill="#bebebe"/>
            <path id="Path_304"
                  d="M255.316,6.09A7.466,7.466,0,0,0,249.232.006a.393.393,0,1,0-.128.775,6.669,6.669,0,0,1,5.437,5.437.391.391,0,0,0,.388.326A.52.52,0,0,0,255,6.539.386.386,0,0,0,255.316,6.09Z"
                  transform="translate(-238.322 0)" fill="#bebebe"/>
        </g>
    </g>
</svg>
