<svg id="question-mark-svgrepo-com_1_" data-name="question-mark-svgrepo-com (1)" xmlns="http://www.w3.org/2000/svg"
     width="40" height="40" viewBox="0 0 40 40">
    <g id="Group_1" data-name="Group 1">
        <path id="Path_12" data-name="Path 12"
              d="M32.694,0H7.306A7.315,7.315,0,0,0,0,7.306V32.694A7.315,7.315,0,0,0,7.306,40H32.694A7.315,7.315,0,0,0,40,32.694V7.306A7.315,7.315,0,0,0,32.694,0Zm4.775,32.694a4.78,4.78,0,0,1-4.775,4.775H7.306a4.78,4.78,0,0,1-4.775-4.775V7.306A4.78,4.78,0,0,1,7.306,2.532H32.694a4.78,4.78,0,0,1,4.775,4.775V32.694Z"/>
        <path id="Path_13" data-name="Path 13"
              d="M142.451,79.908a6.21,6.21,0,0,0-6.2,6.2,1.266,1.266,0,1,0,2.532,0,3.671,3.671,0,1,1,7.342,0c0,1.164-.842,1.943-2.229,3.086-1.269,1.046-2.708,2.233-2.708,4.118v4.061a1.266,1.266,0,1,0,2.532,0V93.315c0-.692.828-1.375,1.787-2.165,1.4-1.157,3.15-2.6,3.15-5.039A6.21,6.21,0,0,0,142.451,79.908Z"
              transform="translate(-122.451 -71.816)"/>
        <path id="Path_14" data-name="Path 14"
              d="M183.091,283.024a1.624,1.624,0,1,0,1.624,1.624A1.626,1.626,0,0,0,183.091,283.024Z"
              transform="translate(-163.091 -254.363)"/>
    </g>
</svg>
