<svg id="wallet-filled-money-tool" xmlns="http://www.w3.org/2000/svg" width="17" height="17" viewBox="0 0 17 17">
    <g id="Group_239">
        <path id="Path_296" d="M160.57,21.423l7.816-2.133-.414-.837a1.1,1.1,0,0,0-1.475-.5l-7,3.468Z"
              transform="translate(-156.842 -17.84)" fill="#c5c5c5"/>
        <path id="Path_297"
              d="M329.734,86.46a1.1,1.1,0,0,0-.291.04l-1.836.5L322,88.532h9.139l-.343-1.259A1.1,1.1,0,0,0,329.734,86.46Z"
              transform="translate(-316.676 -84.949)" fill="#c5c5c5"/>
        <path id="Path_298"
              d="M14.925,215.56H.947a.9.9,0,0,0-.739.414,1.178,1.178,0,0,0-.174.4,1.315,1.315,0,0,0-.034.288v12.265a1.032,1.032,0,0,0,.946,1.1H14.923a1.032,1.032,0,0,0,.946-1.1v-3.071H10.257a1.756,1.756,0,0,1-1.607-1.871v-2.448a2.032,2.032,0,0,1,.456-1.3,1.521,1.521,0,0,1,.959-.553,1.375,1.375,0,0,1,.191-.013h5.613v-3.005A1.03,1.03,0,0,0,14.925,215.56Z"
              transform="translate(0 -213.027)" fill="#c5c5c5"/>
        <path id="Path_299"
              d="M500.806,437.049a1.1,1.1,0,0,0-.385-.229,1.123,1.123,0,0,0-.357-.059H493.5a1.1,1.1,0,0,0-1.1,1.1v2.45a1.1,1.1,0,0,0,1.1,1.1h6.563a1.123,1.123,0,0,0,.357-.059,1.068,1.068,0,0,0,.385-.229,1.1,1.1,0,0,0,.359-.812v-2.45A1.1,1.1,0,0,0,500.806,437.049Zm-5.007,2.257a.551.551,0,0,1-.55.55h-.365a.551.551,0,0,1-.55-.55v-.365a.539.539,0,0,1,.211-.432.556.556,0,0,1,.339-.119h.365a.551.551,0,0,1,.55.55v.365Z"
              transform="translate(-484.165 -428.723)" fill="#c5c5c5"/>
    </g>
</svg>
