<?xml version="1.0" standalone="no"?>
<!DOCTYPE svg PUBLIC "-//W3C//DTD SVG 20010904//EN"
 "http://www.w3.org/TR/2001/REC-SVG-20010904/DTD/svg10.dtd">
<svg version="1.0" xmlns="http://www.w3.org/2000/svg"
 width="113.000000pt" height="113.000000pt" viewBox="0 0 113.000000 113.000000"
 preserveAspectRatio="xMidYMid meet">
<metadata>
Created by potrace 1.14, written by Peter Selinger 2001-2017
</metadata>
<g transform="translate(0.000000,113.000000) scale(0.100000,-0.100000)"
fill="#000000" stroke="none">
<path d="M229 1065 c-97 -31 -177 -134 -183 -238 -4 -69 5 -97 82 -256 37 -75
77 -159 90 -187 41 -93 135 -162 227 -167 23 -1 41 -6 38 -11 -3 -4 6 0 21 9
14 10 26 15 26 12 0 -18 411 187 447 222 46 46 84 135 84 196 0 24 -23 99 -38
123 -37 60 -109 122 -142 122 -5 0 -63 -79 -127 -176 l-118 -175 -50 5 c-28 3
-78 8 -111 11 -33 3 -78 8 -100 10 -22 2 -65 7 -95 10 -64 7 -63 7 -54 30 7
18 39 18 219 0 17 -2 62 -6 100 -10 l71 -7 102 154 c56 84 102 157 102 161 0
21 -117 -2 -178 -35 -18 -10 -37 -18 -42 -18 -6 0 -22 25 -37 56 -64 136 -202
202 -334 159z"/>
<path d="M615 150 c-3 -5 -1 -10 4 -10 6 0 11 5 11 10 0 6 -2 10 -4 10 -3 0
-8 -4 -11 -10z"/>
<path d="M470 131 c0 -6 4 -13 10 -16 6 -3 7 1 4 9 -7 18 -14 21 -14 7z"/>
<path d="M659 138 c-5 -18 -6 -38 -1 -34 7 8 12 36 6 36 -2 0 -4 -1 -5 -2z"/>
<path d="M415 111 c-3 -5 -2 -12 3 -15 5 -3 9 1 9 9 0 17 -3 19 -12 6z"/>
<path d="M526 92 c-3 -5 1 -9 9 -9 8 0 12 4 9 9 -3 4 -7 8 -9 8 -2 0 -6 -4 -9
-8z"/>
</g>
</svg>
